<svg width="299" height="198" viewBox="0 0 299 198" fill="none" xmlns="http://www.w3.org/2000/svg">
<path d="M6.144 64.2661V10.5061H21.376V15.1781H12.224V59.5941H21.376V64.2661H6.144ZM38.21 52.7461L28.354 23.1141H35.586L39.49 35.5941C41.73 42.5701 42.178 45.1941 42.498 48.3301H42.69C42.946 45.1941 43.458 42.5061 45.634 35.5941L49.602 23.1141H56.77L46.914 52.7461H38.21ZM78.416 53.6421C69.776 53.6421 64.464 47.1781 64.464 38.0901C64.464 28.8741 69.904 22.2821 78.288 22.2821C86.032 22.2821 90.768 28.1701 90.896 38.0261H71.376C71.376 43.9141 74 48.2661 78.992 48.2661C82.256 48.2661 84.752 46.4741 87.184 43.1461L91.024 47.3701C87.888 51.2741 83.984 53.6421 78.416 53.6421ZM71.76 33.8021H83.984C83.728 30.2821 81.744 27.4661 78.224 27.4661C74.96 27.4661 72.528 29.8981 71.76 33.8021ZM99.9385 52.7461V47.4341H107.874V28.4261H99.9385V23.1141H114.978V30.2181H115.234C116.706 25.6741 120.098 23.1141 125.666 23.1141H127.778V29.5141H122.978C117.538 29.5141 114.978 32.0741 114.978 37.6421V47.4341H125.154V52.7461H99.9385ZM2.496 89.2261V73.2261H8.576V89.2261H2.496ZM26.707 128.714C33.619 123.85 38.099 118.986 38.739 112.202H38.483C36.435 115.85 33.363 117.642 29.651 117.642C22.611 117.642 17.939 111.178 17.939 101.962C17.939 92.6821 22.611 86.2821 29.715 86.2821C34.003 86.2821 36.883 88.4581 38.675 92.2341H38.931V87.1141H46.099V106.634C46.099 119.178 42.387 126.09 30.483 133.834L26.707 128.714ZM25.043 101.898C25.043 108.298 27.923 112.394 32.019 112.394C36.051 112.394 38.931 108.298 38.931 101.898C38.931 95.5621 36.051 91.4661 32.019 91.4661C27.923 91.4661 25.043 95.5621 25.043 101.898ZM70.843 117.642C62.843 117.642 57.339 111.242 57.339 101.962C57.339 92.6181 62.843 86.2821 70.843 86.2821C78.843 86.2821 84.347 92.6181 84.347 101.962C84.347 111.242 78.843 117.642 70.843 117.642ZM64.443 101.962C64.443 107.85 66.939 112.266 70.843 112.266C74.747 112.266 77.179 107.85 77.179 101.962C77.179 96.0741 74.747 91.6581 70.843 91.6581C66.939 91.6581 64.443 96.0741 64.443 101.962ZM2.496 180.746V173.066H11.008V180.746H2.496ZM23.1 180.746V151.114H30.268V155.914H30.524C32.7 152.202 36.284 150.282 40.124 150.282C45.5 150.282 49.34 153.61 49.34 161.994V180.746H42.172V163.338C42.172 158.346 40.956 155.466 37.116 155.466C33.02 155.466 30.268 158.922 30.268 163.594V180.746H23.1ZM68.5935 192.714C75.5055 187.85 79.9215 183.242 80.6255 176.202H80.3695C78.4495 179.594 74.9935 181.642 71.0895 181.642C65.3935 181.642 61.7455 177.802 61.7455 170.186V151.114H68.9135V168.458C68.9135 172.746 69.6815 176.394 74.0975 176.394C78.1295 176.394 80.8175 172.938 80.8175 168.33V151.114H87.9855V170.634C87.9855 183.178 84.2735 190.09 72.3695 197.834L68.5935 192.714ZM108.327 181.322C102.823 181.322 99.111 178.122 99.111 173.514C99.111 169.162 101.607 166.602 108.199 164.426C113.319 162.762 115.751 161.61 115.751 158.794C115.751 157.002 114.535 155.658 112.295 155.658C109.479 155.658 106.471 157.642 103.527 159.69L100.583 155.146C105.127 152.074 109.159 150.282 113.575 150.282C119.463 150.282 122.919 153.418 122.919 159.434V171.21C122.919 174.41 124.391 175.434 126.887 175.434H127.719V180.746H125.479C120.999 180.746 118.183 178.634 117.671 174.986H117.415C115.879 179.21 112.679 181.322 108.327 181.322ZM106.087 172.81C106.087 174.986 107.687 176.394 110.311 176.394C113.703 176.394 115.943 173.834 115.943 168.714V165.45C114.791 167.178 112.487 167.818 110.311 168.458C107.175 169.418 106.087 170.89 106.087 172.81ZM135.877 192.266V187.594H144.965V143.178H135.877V138.506H151.045V192.266H135.877Z" fill="#AE2C2E"/>
</svg>
