<svg width="165" height="68" viewBox="0 0 165 68" fill="none" xmlns="http://www.w3.org/2000/svg">
<path d="M12.304 46.32V26.16H18.016V27.912H14.584V44.568H18.016V46.32H12.304ZM24.3287 42L20.6327 30.888H23.3447L24.8087 35.568C25.6487 38.184 25.8167 39.168 25.9367 40.344H26.0087C26.1047 39.168 26.2967 38.16 27.1128 35.568L28.6008 30.888H31.2887L27.5928 42H24.3287ZM39.406 42.336C36.166 42.336 34.174 39.912 34.174 36.504C34.174 33.048 36.214 30.576 39.358 30.576C42.262 30.576 44.038 32.784 44.086 36.48H36.766C36.766 38.688 37.75 40.32 39.622 40.32C40.846 40.32 41.782 39.648 42.694 38.4L44.134 39.984C42.958 41.448 41.494 42.336 39.406 42.336ZM36.91 34.896H41.494C41.398 33.576 40.654 32.52 39.334 32.52C38.11 32.52 37.198 33.432 36.91 34.896ZM47.4769 42V40.008H50.4529V32.88H47.4769V30.888H53.1169V33.552H53.2129C53.7649 31.848 55.0369 30.888 57.1249 30.888H57.9169V33.288H56.1169C54.0769 33.288 53.1169 34.248 53.1169 36.336V40.008H56.9329V42H47.4769ZM61.7391 31.68V25.68H64.0191V31.68H61.7391ZM70.8183 46.488C73.4103 44.664 75.0903 42.84 75.3303 40.296H75.2343C74.4663 41.664 73.3143 42.336 71.9223 42.336C69.2823 42.336 67.5303 39.912 67.5303 36.456C67.5303 32.976 69.2823 30.576 71.9463 30.576C73.5543 30.576 74.6343 31.392 75.3063 32.808H75.4023V30.888H78.0903V38.208C78.0903 42.912 76.6983 45.504 72.2343 48.408L70.8183 46.488ZM70.1943 36.432C70.1943 38.832 71.2743 40.368 72.8103 40.368C74.3223 40.368 75.4023 38.832 75.4023 36.432C75.4023 34.056 74.3223 32.52 72.8103 32.52C71.2743 32.52 70.1943 34.056 70.1943 36.432ZM87.3693 42.336C84.3693 42.336 82.3053 39.936 82.3053 36.456C82.3053 32.952 84.3693 30.576 87.3693 30.576C90.3693 30.576 92.4333 32.952 92.4333 36.456C92.4333 39.936 90.3693 42.336 87.3693 42.336ZM84.9693 36.456C84.9693 38.664 85.9053 40.32 87.3693 40.32C88.8333 40.32 89.7453 38.664 89.7453 36.456C89.7453 34.248 88.8333 32.592 87.3693 32.592C85.9053 32.592 84.9693 34.248 84.9693 36.456ZM96.1266 42V39.12H99.3186V42H96.1266ZM103.853 42V30.888H106.541V32.688H106.637C107.453 31.296 108.797 30.576 110.237 30.576C112.253 30.576 113.693 31.824 113.693 34.968V42H111.005V35.472C111.005 33.6 110.549 32.52 109.109 32.52C107.573 32.52 106.541 33.816 106.541 35.568V42H103.853ZM120.913 46.488C123.505 44.664 125.161 42.936 125.425 40.296H125.329C124.609 41.568 123.313 42.336 121.849 42.336C119.713 42.336 118.345 40.896 118.345 38.04V30.888H121.033V37.392C121.033 39 121.321 40.368 122.977 40.368C124.489 40.368 125.497 39.072 125.497 37.344V30.888H128.185V38.208C128.185 42.912 126.793 45.504 122.329 48.408L120.913 46.488ZM135.813 42.216C133.749 42.216 132.357 41.016 132.357 39.288C132.357 37.656 133.293 36.696 135.765 35.88C137.685 35.256 138.597 34.824 138.597 33.768C138.597 33.096 138.141 32.592 137.301 32.592C136.245 32.592 135.117 33.336 134.013 34.104L132.909 32.4C134.613 31.248 136.125 30.576 137.781 30.576C139.989 30.576 141.285 31.752 141.285 34.008V38.424C141.285 39.624 141.837 40.008 142.773 40.008H143.085V42H142.245C140.565 42 139.509 41.208 139.317 39.84H139.221C138.645 41.424 137.445 42.216 135.813 42.216ZM134.973 39.024C134.973 39.84 135.573 40.368 136.557 40.368C137.829 40.368 138.669 39.408 138.669 37.488V36.264C138.237 36.912 137.373 37.152 136.557 37.392C135.381 37.752 134.973 38.304 134.973 39.024ZM146.144 46.32V44.568H149.552V27.912H146.144V26.16H151.832V46.32H146.144Z" fill="white"/>
</svg>
