<svg width="299" height="386" viewBox="0 0 299 386" fill="none" xmlns="http://www.w3.org/2000/svg">
<path d="M11.52 132.6V31.8H40.08V40.56H22.92V123.84H40.08V132.6H11.52ZM71.6438 111L53.1638 55.44H66.7238L74.0438 78.84C78.2438 91.92 79.0838 96.84 79.6838 102.72H80.0438C80.5238 96.84 81.4838 91.8 85.5638 78.84L93.0038 55.44H106.444L87.9638 111H71.6438ZM147.03 112.68C130.83 112.68 120.87 100.56 120.87 83.52C120.87 66.24 131.07 53.88 146.79 53.88C161.31 53.88 170.19 64.92 170.43 83.4H133.83C133.83 94.44 138.75 102.6 148.11 102.6C154.23 102.6 158.91 99.24 163.47 93L170.67 100.92C164.79 108.24 157.47 112.68 147.03 112.68ZM134.55 75.48H157.47C156.99 68.88 153.27 63.6 146.67 63.6C140.55 63.6 135.99 68.16 134.55 75.48ZM187.385 111V101.04H202.265V65.4H187.385V55.44H215.585V68.76H216.065C218.825 60.24 225.185 55.44 235.625 55.44H239.585V67.44H230.585C220.385 67.44 215.585 72.24 215.585 82.68V101.04H234.665V111H187.385ZM4.68 179.4V149.4H16.08V179.4H4.68ZM50.0756 253.44C63.0356 244.32 71.4356 235.2 72.6356 222.48H72.1556C68.3156 229.32 62.5556 232.68 55.5956 232.68C42.3956 232.68 33.6356 220.56 33.6356 203.28C33.6356 185.88 42.3956 173.88 55.7156 173.88C63.7556 173.88 69.1556 177.96 72.5156 185.04H72.9956V175.44H86.4356V212.04C86.4356 235.56 79.4756 248.52 57.1556 263.04L50.0756 253.44ZM46.9556 203.16C46.9556 215.16 52.3556 222.84 60.0356 222.84C67.5956 222.84 72.9956 215.16 72.9956 203.16C72.9956 191.28 67.5956 183.6 60.0356 183.6C52.3556 183.6 46.9556 191.28 46.9556 203.16ZM132.831 232.68C117.831 232.68 107.511 220.68 107.511 203.28C107.511 185.76 117.831 173.88 132.831 173.88C147.831 173.88 158.151 185.76 158.151 203.28C158.151 220.68 147.831 232.68 132.831 232.68ZM120.831 203.28C120.831 214.32 125.511 222.6 132.831 222.6C140.151 222.6 144.711 214.32 144.711 203.28C144.711 192.24 140.151 183.96 132.831 183.96C125.511 183.96 120.831 192.24 120.831 203.28ZM4.68 351V336.6H20.64V351H4.68ZM43.3125 351V295.44H56.7525V304.44H57.2325C61.3125 297.48 68.0325 293.88 75.2325 293.88C85.3125 293.88 92.5125 300.12 92.5125 315.84V351H79.0725V318.36C79.0725 309 76.7925 303.6 69.5925 303.6C61.9125 303.6 56.7525 310.08 56.7525 318.84V351H43.3125ZM128.613 373.44C141.573 364.32 149.853 355.68 151.173 342.48H150.693C147.093 348.84 140.613 352.68 133.293 352.68C122.613 352.68 115.773 345.48 115.773 331.2V295.44H129.213V327.96C129.213 336 130.653 342.84 138.933 342.84C146.493 342.84 151.533 336.36 151.533 327.72V295.44H164.973V332.04C164.973 355.56 158.013 368.52 135.693 383.04L128.613 373.44ZM203.113 352.08C192.793 352.08 185.833 346.08 185.833 337.44C185.833 329.28 190.513 324.48 202.873 320.4C212.473 317.28 217.033 315.12 217.033 309.84C217.033 306.48 214.753 303.96 210.553 303.96C205.273 303.96 199.633 307.68 194.113 311.52L188.593 303C197.113 297.24 204.673 293.88 212.953 293.88C223.993 293.88 230.473 299.76 230.473 311.04V333.12C230.473 339.12 233.233 341.04 237.913 341.04H239.473V351H235.273C226.873 351 221.593 347.04 220.633 340.2H220.153C217.273 348.12 211.273 352.08 203.113 352.08ZM198.913 336.12C198.913 340.2 201.913 342.84 206.833 342.84C213.193 342.84 217.393 338.04 217.393 328.44V322.32C215.233 325.56 210.913 326.76 206.833 327.96C200.953 329.76 198.913 332.52 198.913 336.12ZM254.769 372.6V363.84H271.809V280.56H254.769V271.8H283.209V372.6H254.769Z" fill="white"/>
</svg>
