<svg width="299" height="319" viewBox="0 0 299 319" fill="none" xmlns="http://www.w3.org/2000/svg">
<path d="M6.144 127.266V73.5061H21.376V78.1781H12.224V122.594H21.376V127.266H6.144ZM38.21 115.746L28.354 86.1141H35.586L39.49 98.5941C41.73 105.57 42.178 108.194 42.498 111.33H42.69C42.946 108.194 43.458 105.506 45.634 98.5941L49.602 86.1141H56.77L46.914 115.746H38.21ZM78.416 116.642C69.776 116.642 64.464 110.178 64.464 101.09C64.464 91.8741 69.904 85.2821 78.288 85.2821C86.032 85.2821 90.768 91.1701 90.896 101.026H71.376C71.376 106.914 74 111.266 78.992 111.266C82.256 111.266 84.752 109.474 87.184 106.146L91.024 110.37C87.888 114.274 83.984 116.642 78.416 116.642ZM71.76 96.8021H83.984C83.728 93.2821 81.744 90.4661 78.224 90.4661C74.96 90.4661 72.528 92.8981 71.76 96.8021ZM99.9385 115.746V110.434H107.874V91.4261H99.9385V86.1141H114.978V93.2181H115.234C116.706 88.6741 120.098 86.1141 125.666 86.1141H127.778V92.5141H122.978C117.538 92.5141 114.978 95.0741 114.978 100.642V110.434H125.154V115.746H99.9385ZM2.496 152.226V136.226H8.576V152.226H2.496ZM26.707 191.714C33.619 186.85 38.099 181.986 38.739 175.202H38.483C36.435 178.85 33.363 180.642 29.651 180.642C22.611 180.642 17.939 174.178 17.939 164.962C17.939 155.682 22.611 149.282 29.715 149.282C34.003 149.282 36.883 151.458 38.675 155.234H38.931V150.114H46.099V169.634C46.099 182.178 42.387 189.09 30.483 196.834L26.707 191.714ZM25.043 164.898C25.043 171.298 27.923 175.394 32.019 175.394C36.051 175.394 38.931 171.298 38.931 164.898C38.931 158.562 36.051 154.466 32.019 154.466C27.923 154.466 25.043 158.562 25.043 164.898ZM70.843 180.642C62.843 180.642 57.339 174.242 57.339 164.962C57.339 155.618 62.843 149.282 70.843 149.282C78.843 149.282 84.347 155.618 84.347 164.962C84.347 174.242 78.843 180.642 70.843 180.642ZM64.443 164.962C64.443 170.85 66.939 175.266 70.843 175.266C74.747 175.266 77.179 170.85 77.179 164.962C77.179 159.074 74.747 154.658 70.843 154.658C66.939 154.658 64.443 159.074 64.443 164.962ZM2.496 243.746V236.066H11.008V243.746H2.496ZM23.1 243.746V214.114H30.268V218.914H30.524C32.7 215.202 36.284 213.282 40.124 213.282C45.5 213.282 49.34 216.61 49.34 224.994V243.746H42.172V226.338C42.172 221.346 40.956 218.466 37.116 218.466C33.02 218.466 30.268 221.922 30.268 226.594V243.746H23.1ZM68.5935 255.714C75.5055 250.85 79.9215 246.242 80.6255 239.202H80.3695C78.4495 242.594 74.9935 244.642 71.0895 244.642C65.3935 244.642 61.7455 240.802 61.7455 233.186V214.114H68.9135V231.458C68.9135 235.746 69.6815 239.394 74.0975 239.394C78.1295 239.394 80.8175 235.938 80.8175 231.33V214.114H87.9855V233.634C87.9855 246.178 84.2735 253.09 72.3695 260.834L68.5935 255.714ZM108.327 244.322C102.823 244.322 99.111 241.122 99.111 236.514C99.111 232.162 101.607 229.602 108.199 227.426C113.319 225.762 115.751 224.61 115.751 221.794C115.751 220.002 114.535 218.658 112.295 218.658C109.479 218.658 106.471 220.642 103.527 222.69L100.583 218.146C105.127 215.074 109.159 213.282 113.575 213.282C119.463 213.282 122.919 216.418 122.919 222.434V234.21C122.919 237.41 124.391 238.434 126.887 238.434H127.719V243.746H125.479C120.999 243.746 118.183 241.634 117.671 237.986H117.415C115.879 242.21 112.679 244.322 108.327 244.322ZM106.087 235.81C106.087 237.986 107.687 239.394 110.311 239.394C113.703 239.394 115.943 236.834 115.943 231.714V228.45C114.791 230.178 112.487 230.818 110.311 231.458C107.175 232.418 106.087 233.89 106.087 235.81ZM135.877 255.266V250.594H144.965V206.178H135.877V201.506H151.045V255.266H135.877Z" fill="#AE2C2E"/>
</svg>
